<?xml version="1.0" standalone="no"?>
<!DOCTYPE svg PUBLIC "-//W3C//DTD SVG 20010904//EN"
 "http://www.w3.org/TR/2001/REC-SVG-20010904/DTD/svg10.dtd">
<svg version="1.0" xmlns="http://www.w3.org/2000/svg"
 width="16.000000pt" height="16.000000pt" viewBox="0 0 16.000000 16.000000"
 preserveAspectRatio="xMidYMid meet">
<metadata>
Created by potrace 1.11, written by Peter Selinger 2001-2013
</metadata>
<g transform="translate(0.000000,16.000000) scale(0.001600,-0.001600)"
fill="#000000" stroke="none">
<path d="M4957 8904 c-1 -1 -76 -5 -167 -8 -226 -10 -345 -19 -407 -30 -10 -2
-45 -7 -78 -10 -33 -4 -96 -14 -140 -22 -44 -8 -96 -17 -115 -20 -64 -10 -119
-21 -190 -39 -30 -8 -70 -17 -89 -20 -19 -3 -38 -8 -43 -11 -5 -3 -21 -8 -36
-10 -29 -6 -44 -10 -252 -74 -114 -36 -291 -99 -365 -130 -228 -97 -421 -191
-562 -272 -56 -32 -107 -58 -112 -58 -6 0 -11 -4 -11 -8 0 -5 -11 -14 -25 -20
-21 -10 -239 -152 -335 -219 -41 -28 -283 -215 -315 -244 -194 -170 -325 -293
-325 -305 0 -5 67 -76 150 -159 l149 -149 22 20 c12 10 45 42 73 69 29 28 81
75 115 105 35 30 69 60 75 66 63 60 363 283 476 354 30 19 57 37 60 41 3 3 25
17 50 31 25 14 61 34 80 46 19 11 55 32 80 46 102 60 463 233 500 240 3 1 10
4 15 8 24 14 349 130 405 144 8 2 40 10 70 19 100 29 159 45 192 51 45 8 50 9
73 17 11 3 34 9 50 12 34 7 140 26 170 31 11 1 29 5 41 8 19 4 82 13 154 21
14 2 47 6 74 10 249 33 755 37 986 9 19 -2 55 -6 80 -8 25 -2 65 -7 90 -11 25
-4 54 -8 65 -9 11 -2 40 -6 65 -10 25 -5 52 -10 60 -11 8 -1 35 -6 60 -10 60
-10 260 -55 335 -76 17 -4 59 -16 95 -25 36 -10 67 -21 68 -26 2 -4 8 -6 13
-3 5 3 18 1 29 -5 12 -6 30 -13 41 -15 23 -5 133 -41 169 -57 14 -6 34 -14 45
-18 28 -11 105 -40 135 -52 142 -56 423 -198 585 -295 72 -43 141 -85 155 -93
14 -8 27 -18 30 -21 3 -3 48 -34 100 -69 52 -36 100 -69 107 -75 26 -22 70
-57 108 -85 45 -35 98 -78 135 -110 14 -12 47 -40 74 -63 27 -23 75 -67 106
-97 31 -30 69 -66 84 -80 l27 -24 154 154 154 154 -68 65 c-119 115 -247 227
-363 318 -42 33 -82 66 -90 72 -7 7 -44 34 -83 61 -38 28 -75 53 -80 58 -30
24 -196 132 -203 132 -5 0 -17 9 -27 20 -10 11 -24 20 -32 20 -7 0 -13 5 -13
10 0 6 -4 10 -9 10 -4 0 -48 23 -97 52 -116 67 -339 182 -434 223 -41 18 -95
42 -120 53 -25 11 -76 33 -115 47 -38 15 -88 34 -110 42 -63 24 -294 100 -360
119 -82 22 -205 54 -234 60 -13 3 -54 11 -90 19 -74 17 -223 45 -261 50 -14 2
-35 6 -47 9 -12 2 -48 8 -80 11 -32 4 -69 8 -83 10 -131 17 -208 22 -400 30
-85 3 -179 7 -208 8 -29 2 -54 2 -55 1z"/>
<path d="M4897 7754 c-1 -1 -56 -4 -122 -8 -66 -3 -136 -8 -155 -10 -19 -2
-64 -7 -100 -11 -36 -4 -74 -9 -85 -11 -11 -2 -40 -7 -65 -10 -25 -3 -79 -13
-120 -21 -41 -8 -84 -16 -95 -18 -11 -2 -20 -4 -20 -5 0 -2 -18 -6 -62 -14
-18 -3 -42 -10 -55 -15 -13 -5 -26 -9 -31 -10 -21 -3 -70 -16 -140 -38 -43
-14 -84 -26 -90 -27 -7 -2 -19 -6 -27 -9 -120 -45 -187 -69 -195 -71 -5 -1
-32 -12 -59 -24 -27 -12 -50 -22 -52 -22 -6 0 -177 -79 -194 -90 -8 -5 -33
-18 -56 -28 -99 -46 -401 -231 -448 -274 -11 -10 -23 -18 -28 -18 -4 0 -16 -7
-25 -15 -10 -7 -65 -51 -123 -96 -58 -46 -110 -88 -116 -93 -7 -6 -42 -38 -78
-70 -37 -33 -89 -80 -116 -106 l-49 -46 154 -154 c172 -172 150 -163 230 -85
47 45 187 168 220 193 6 4 37 28 70 53 92 70 222 159 233 159 6 0 12 4 14 8 4
10 105 72 117 72 5 0 11 5 13 11 2 5 11 11 20 12 9 2 22 8 29 14 19 15 219
114 299 148 36 15 80 34 99 42 18 8 39 16 45 18 6 1 24 7 39 13 52 22 290 96
342 108 6 1 30 7 55 14 25 7 59 14 75 17 17 2 46 8 65 13 19 5 58 12 85 15 28
4 57 8 65 10 138 39 761 52 930 21 14 -3 52 -8 85 -12 100 -11 110 -12 110
-14 0 -1 13 -4 29 -6 71 -8 317 -69 456 -112 109 -34 278 -98 365 -138 33 -15
65 -28 72 -30 7 -1 27 -13 45 -26 18 -12 35 -22 38 -21 8 2 137 -64 150 -77 3
-3 25 -16 50 -29 94 -50 360 -233 368 -253 2 -4 10 -8 17 -8 7 0 15 -3 17 -7
2 -5 41 -40 88 -79 47 -39 114 -99 149 -133 35 -34 68 -60 72 -59 13 5 299
290 299 299 0 13 -115 123 -240 229 -36 30 -66 58 -68 63 -2 4 -10 7 -17 7 -7
0 -15 3 -17 8 -8 19 -260 202 -278 202 -4 0 -10 4 -12 8 -10 25 -421 250 -568
311 -30 13 -71 30 -90 38 -58 25 -72 30 -157 62 -45 17 -89 31 -97 31 -7 0
-27 7 -42 15 -16 8 -36 15 -45 15 -9 0 -19 3 -23 7 -3 4 -14 8 -24 9 -9 1 -53
12 -97 24 -97 26 -95 26 -215 51 -54 12 -64 13 -127 23 -18 2 -40 7 -50 10
-10 3 -40 8 -68 11 -27 3 -70 8 -95 11 -25 3 -61 7 -80 10 -79 9 -486 24 -493
18z"/>
<path d="M4809 6645 c-3 -2 -34 -6 -69 -9 -36 -2 -65 -5 -65 -6 0 -1 -18 -3
-40 -5 -22 -1 -56 -6 -75 -10 -19 -4 -48 -8 -65 -11 -16 -2 -41 -6 -55 -9 -61
-13 -76 -16 -85 -19 -5 -2 -28 -7 -50 -11 -55 -12 -55 -12 -57 -15 -2 -1 -10
-3 -19 -5 -44 -8 -302 -101 -367 -131 -40 -19 -79 -34 -86 -34 -7 0 -19 -7
-26 -15 -7 -8 -18 -15 -24 -15 -30 0 -386 -219 -433 -265 -8 -8 -18 -15 -22
-15 -4 0 -16 -8 -27 -17 -10 -10 -55 -49 -99 -86 -44 -37 -100 -88 -125 -112
l-45 -45 150 -150 c82 -82 154 -150 158 -150 8 0 49 37 139 123 16 15 33 27
38 27 4 0 10 3 12 8 3 8 74 64 121 97 18 12 59 40 92 62 80 55 291 164 390
203 44 17 89 35 100 40 11 6 29 12 40 13 11 2 29 7 40 11 50 19 76 27 155 47
99 25 103 25 167 35 26 3 57 8 68 10 27 6 100 14 160 19 60 5 334 5 390 0 50
-4 132 -14 165 -20 14 -2 45 -7 69 -10 118 -16 365 -90 520 -154 165 -69 401
-206 531 -310 63 -50 181 -152 206 -178 12 -13 25 -23 30 -23 5 0 76 67 159
150 l149 149 -20 22 c-27 32 -78 78 -164 149 -41 34 -86 71 -99 82 -38 32
-261 180 -316 210 -27 15 -84 45 -125 65 -41 21 -76 41 -78 46 -2 4 -9 7 -17
7 -10 0 -63 21 -180 71 -30 13 -222 75 -285 92 -116 32 -271 61 -445 82 -60 8
-480 16 -486 10z"/>
<path d="M4925 5508 c-16 -5 -37 -11 -45 -13 -45 -11 -153 -54 -163 -64 -6 -6
-15 -11 -19 -11 -8 0 -105 -57 -125 -75 -150 -124 -224 -215 -297 -362 -58
-118 -111 -288 -121 -388 -2 -16 -6 -66 -11 -110 -10 -105 -10 -208 0 -330 5
-55 9 -112 10 -127 0 -16 5 -28 9 -28 5 0 6 -3 3 -8 -2 -4 4 -41 14 -82 71
-295 210 -507 428 -653 106 -71 281 -145 283 -121 1 16 17 79 19 79 1 0 3 7 5
15 1 8 8 35 16 60 7 25 13 50 15 55 1 6 10 37 20 70 10 33 19 63 20 68 1 4 2
8 4 10 1 1 3 9 5 17 2 8 16 56 30 105 14 50 28 104 31 120 3 17 9 46 13 65 13
58 4 170 -19 250 -12 41 -26 79 -31 85 -5 5 -9 19 -9 31 0 12 -4 24 -8 26 -13
5 -128 305 -147 383 -35 141 -38 297 -9 475 7 45 72 320 81 340 7 17 7 19 22
80 5 24 9 45 8 46 -1 1 -15 -3 -32 -8z"/>
<path d="M5137 5497 c-3 -12 -14 -57 -26 -99 -85 -314 -103 -408 -106 -559 -3
-141 20 -256 76 -384 11 -25 32 -78 34 -85 0 -3 11 -27 23 -54 12 -27 22 -50
22 -52 0 -1 5 -15 12 -31 6 -15 12 -30 13 -33 1 -3 4 -12 8 -20 55 -134 73
-271 51 -395 -22 -130 -20 -118 -68 -280 -1 -5 -8 -30 -15 -55 -7 -25 -19 -65
-28 -90 -8 -25 -17 -56 -19 -69 -3 -13 -9 -32 -15 -43 -5 -10 -8 -18 -5 -18 2
0 -4 -29 -14 -65 l-19 -65 47 6 c26 3 54 10 62 14 8 4 17 8 20 7 24 -3 232 88
238 104 2 5 9 9 15 9 7 0 28 14 47 30 19 16 38 30 42 30 22 0 183 183 225 255
72 124 145 325 158 435 4 30 8 57 10 61 4 6 18 197 18 249 0 56 -12 253 -18
280 -3 14 -7 39 -10 55 -11 62 -27 131 -36 150 -5 11 -11 29 -12 40 -4 20 -8
30 -49 128 -33 81 -125 213 -197 286 -67 67 -117 111 -126 111 -3 0 -15 8 -25
18 -24 22 -171 95 -225 112 -22 7 -54 18 -71 26 -30 12 -32 11 -37 -9z m657
-1389 c9 -12 14 -24 12 -27 -2 -3 -7 -22 -10 -41 -9 -58 -61 -226 -75 -245 -4
-5 -14 -26 -21 -45 -17 -42 -68 -128 -92 -154 -10 -11 -18 -23 -18 -27 0 -11
-123 -135 -147 -147 -28 -16 -50 -6 -57 24 -6 21 3 35 53 85 77 77 139 165
183 259 29 62 59 138 63 160 1 3 4 14 8 25 3 11 8 31 11 45 8 47 19 85 27 95
14 19 48 14 63 -7z"/>
</g>
</svg>
